<?xml version="1.0" encoding="utf-8"?><svg viewBox="0 0 85 85" xmlns="http://www.w3.org/2000/svg" xmlns:xlink="http://www.w3.org/1999/xlink"><style>:root>svg{display:none}:root>svg:target{display:block}</style><svg viewBox="0 0 85 85" id="Facebook" xmlns="http://www.w3.org/2000/svg"><defs><style>.acls-1{fill:#3a5a99}.acls-2{fill:#fff}</style></defs><g id="aCircle_Color" data-name="Circle Color"><g id="aFacebook"><circle id="aback" class="acls-1" cx="42.5" cy="42.5" r="42.5"/><path id="aFacebook-2" data-name="Facebook" class="acls-2" d="M63.18 19.26H21.82a2.56 2.56 0 00-2.56 2.56v41.36a2.56 2.56 0 002.56 2.56h22.27v-18H38v-7h6.06v-5.19c0-6 3.66-9.27 9-9.27a48.14 48.14 0 015.41.28v6.27h-3.66c-2.92 0-3.48 1.39-3.48 3.42v4.48h7l-.91 7h-6v18h11.76a2.56 2.56 0 002.56-2.56V21.82a2.56 2.56 0 00-2.56-2.56z"/></g></g></svg><svg viewBox="0 0 85 85" id="Github" xmlns="http://www.w3.org/2000/svg"><defs><style>.bcls-1{fill:#3f91cb}.bcls-2,.bcls-3{fill:#fff}.bcls-2{fill-rule:evenodd}</style></defs><g id="bCircle_Color" data-name="Circle Color"><g id="bGithub"><circle id="bback" class="bcls-1" cx="42.5" cy="42.5" r="42.5"/><g id="bGithub-2" data-name="Github"><path class="bcls-2" d="M42.5 19.29A23.8 23.8 0 0035 65.67c1.19.22 1.62-.52 1.62-1.14V60.1c-6.62 1.43-8-2.81-8-2.81-1.08-2.75-2.64-3.49-2.64-3.49-2.16-1.47.16-1.44.16-1.44a5 5 0 013.65 2.45c2.12 3.64 5.57 2.59 6.93 2a5 5 0 011.51-3.18C32.87 53 27.31 51 27.31 41.84a9.17 9.17 0 012.46-6.38 8.5 8.5 0 01.23-6.3s2-.64 6.54 2.44a22.6 22.6 0 0111.92 0C53 28.52 55 29.16 55 29.16a8.5 8.5 0 01.23 6.3 9.16 9.16 0 012.45 6.38c0 9.16-5.56 11.16-10.86 11.75A5.7 5.7 0 0148.43 58v6.53c0 .63.43 1.37 1.64 1.14a23.8 23.8 0 00-7.57-46.38z"/><path class="bcls-3" d="M27.71 53.46c-.05.12-.23.15-.4.07s-.27-.24-.22-.36.24-.15.41-.07.27.24.21.36zm-.29-.22M28.68 54.53c-.11.11-.34.06-.49-.11a.37.37 0 01-.07-.49c.12-.11.33-.06.49.11s.19.39.07.49zm-.23-.24M29.62 55.91c-.15.1-.39 0-.53-.21s-.15-.47 0-.57.38 0 .53.2.15.47 0 .58zm0 0M30.9 57.23c-.13.14-.41.1-.61-.09s-.27-.47-.13-.61.41-.1.61.09.27.47.13.61zm0 0M32.68 58c-.06.18-.33.27-.6.19s-.44-.3-.39-.49.33-.27.6-.19.44.3.39.49zm0 0M34.62 58.14c0 .2-.22.36-.5.36s-.52-.15-.52-.34.22-.36.51-.37.51.16.51.35zm0 0M36.44 57.83c0 .19-.17.39-.45.44s-.53-.06-.56-.25.16-.4.44-.45.53.07.57.26zm0 0"/></g></g></g></svg><svg viewBox="0 0 85 85" id="Instagram" xmlns="http://www.w3.org/2000/svg"><defs><style>.ccls-1{fill:#d50060}.ccls-2{fill:#fff}</style></defs><g id="cCircle_Color" data-name="Circle Color"><g id="cInstagram"><circle id="cback" class="ccls-1" cx="42.5" cy="42.5" r="42.5"/><path class="ccls-2" d="M42.5 23c6.35 0 7.11 0 9.62.14a12.93 12.93 0 014.42.82 7.91 7.91 0 014.51 4.51 12.93 12.93 0 01.82 4.42c.12 2.51.14 3.27.14 9.62s0 7.11-.14 9.62a12.93 12.93 0 01-.82 4.42 7.91 7.91 0 01-4.51 4.51 12.93 12.93 0 01-4.42.82c-2.51.12-3.26.14-9.62.14s-7.11 0-9.62-.14a12.93 12.93 0 01-4.42-.82A7.91 7.91 0 0124 56.54a12.93 12.93 0 01-.82-4.42C23 49.61 23 48.85 23 42.5s0-7.11.14-9.62a12.93 12.93 0 01.86-4.42A7.91 7.91 0 0128.46 24a12.93 12.93 0 014.42-.82C35.39 23 36.15 23 42.5 23m0-4.29c-6.46 0-7.27 0-9.81.14A17.49 17.49 0 0026.91 20a12.1 12.1 0 00-7 7 17.49 17.49 0 00-1.11 5.78c-.11 2.54-.14 3.35-.14 9.81s0 7.27.14 9.81a17.49 17.49 0 001.2 5.69 12.1 12.1 0 007 7 17.49 17.49 0 005.78 1.11c2.54.11 3.35.14 9.81.14s7.27 0 9.81-.14a17.49 17.49 0 005.78-1.11 12.1 12.1 0 007-7 17.49 17.49 0 001.11-5.78c.11-2.54.14-3.35.14-9.81s0-7.27-.14-9.81a17.49 17.49 0 00-1.11-5.78 12.1 12.1 0 00-7-7 17.49 17.49 0 00-5.78-1.11c-2.54-.11-3.35-.14-9.81-.14z"/><path class="ccls-2" d="M42.5 30.28A12.22 12.22 0 1054.72 42.5 12.22 12.22 0 0042.5 30.28zm0 20.15a7.93 7.93 0 117.93-7.93 7.93 7.93 0 01-7.93 7.93z"/><circle class="ccls-2" cx="55.2" cy="29.8" r="2.86"/></g></g></svg><svg viewBox="0 0 85 85" id="WhatsApp" xmlns="http://www.w3.org/2000/svg"><defs><style>.dcls-1{fill:#25d366}.dcls-2,.dcls-3{fill:#fff}.dcls-3{fill-rule:evenodd}</style></defs><g id="dCircle_Color" data-name="Circle Color"><g id="dWhatsApp"><circle id="dback" class="dcls-1" cx="42.5" cy="42.5" r="42.5"/><g id="dwhatsApp-2" data-name="whatsApp"><path class="dcls-2" d="M18.7 66.41l3.36-12.28A23.7 23.7 0 1142.6 66a23.67 23.67 0 01-11.33-2.88zm13.15-7.58l.72.42a19.59 19.59 0 0010 2.75 19.7 19.7 0 0013.96-33.63 19.5 19.5 0 00-13.92-5.78 19.71 19.71 0 00-16.7 30.18l.47.74-2 7.27z"/><path class="dcls-3" d="M54.54 47.94c-.15-.25-.54-.4-1.13-.69s-3.51-1.73-4-1.93-.94-.3-1.33.3-1.53 1.92-1.88 2.32-.69.44-1.28.15a16.21 16.21 0 01-4.76-2.94 18.13 18.13 0 01-3.3-4.1.86.86 0 01.26-1.21c.27-.27.59-.69.89-1a4.32 4.32 0 00.59-1 1.08 1.08 0 000-1c-.15-.29-1.33-3.21-1.82-4.39s-1-1-1.34-1h-1.13a2.17 2.17 0 00-1.58.74A6.66 6.66 0 0030.56 37c0 2.92 2.12 5.73 2.41 6.13s4.18 6.37 10.12 8.94a35.85 35.85 0 003.38 1.25 8.15 8.15 0 003.73.23c1.14-.17 3.5-1.43 4-2.81a4.9 4.9 0 00.34-2.8z"/></g></g></g></svg><svg viewBox="0 0 85 85" id="YouTube" xmlns="http://www.w3.org/2000/svg"><defs><style>.ecls-1{fill:#e52d27}.ecls-2{fill:#fff}</style></defs><g id="eCircle_Color" data-name="Circle Color"><g id="eYouTube"><circle id="eback" class="ecls-1" cx="42.5" cy="42.5" r="42.5"/><path id="eyoutube-2" data-name="youtube" class="ecls-2" d="M66.3 52a6.82 6.82 0 01-6.8 6.8h-34a6.82 6.82 0 01-6.8-6.8V33a6.82 6.82 0 016.8-6.8h34a6.82 6.82 0 016.8 6.8zm-28.72-3.66l12.87-6.66L37.58 35z"/></g></g></svg></svg>